<svg xmlns="http://www.w3.org/2000/svg" viewBox="0 0 261.26 215.77"><defs><style>.cls-1{fill:#fff}</style></defs><path class="cls-1" d="M235.17 82.92a3.38 3.38 0 01-3.17-2.28 101.18 101.18 0 00-191.4 0 3.37 3.37 0 11-6.38-2.19 107.93 107.93 0 01204.16 0 3.38 3.38 0 01-2.1 4.28 3.46 3.46 0 01-1.11.19zM136.28 221.34A108.5 108.5 0 0138.94 160a3.37 3.37 0 116.06-2.89 101.19 101.19 0 00182.53 0 3.37 3.37 0 116.08 2.91 108.5 108.5 0 01-97.33 61.32z" transform="translate(-5.65 -5.57)"/><path class="cls-1" d="M17.72 121.97L8.49 87.26H0v52.59h5.66V96.32l9.47 35.44h5.26l9.47-35.44v43.53h5.66V87.26h-8.5l-9.3 34.71z"/><path class="cls-1" d="M76.36 119.36c0 3.44-1.78 5.45-5.2 6.15V92.77H65.5v32.75c-3.49-.68-5.32-2.68-5.32-6.16V92.82h-5.66v26.54q0 10 11 11.17v14.89h5.67v-14.89Q82 129.32 82 119.36V92.82h-5.64zM130.89 91.61q-6.3 0-10.19 5.91c-1.5-3.94-5-5.91-10.43-5.91a11 11 0 00-6 1.74A13.41 13.41 0 0099.83 98l-2-5.18h-2.45v52.6H101v-41.11q0-2.58 2.87-5.22a9.12 9.12 0 016.28-2.62c3.87 0 5.82 2.15 5.82 6.47v42.48h5.66v-40.86c0-1.73 1-3.51 2.87-5.34a8.88 8.88 0 016.27-2.75q5.83 0 5.84 6.47v42.48h5.66v-42.48q.04-11.32-11.38-11.33zM169.74 91.61q-6.65 0-10 3t-3.32 8.38v32.31q0 5.43 3.41 8.38t10 2.95q6.65 0 10-2.95t3.32-8.38v-4.45h-5.65v4.45q0 6.48-7.68 6.48t-7.69-6.48v-14.56h21v-17.8q0-5.43-3.41-8.38c-2.22-1.97-5.57-2.95-9.98-2.95zm7.76 24.27h-15.37v-12.94q0-6.48 7.69-6.47t7.68 6.47zM213.35 91.61q-6.89 0-10.76 6.47l-2-5.26h-2.42v52.6h5.66v-40.86c0-1.73 1-3.51 3-5.34a9.44 9.44 0 016.55-2.75q3.56 0 4.89 1.69a7.53 7.53 0 011.34 4.78v42.48h5.66v-42.48q-.03-11.32-11.92-11.33zM261.24 92.82v40.86q0 2.59-3 5.34a9.53 9.53 0 01-6.56 2.76c-2.37 0-4-.57-4.9-1.7a7.65 7.65 0 01-1.33-4.78V92.82h-5.65v42.48q0 11.34 11.9 11.33a11.36 11.36 0 006.11-1.74 14 14 0 004.57-4.65l2.1 5.18h2.43v-52.6z" transform="translate(-5.65 -5.57)"/></svg>