<svg version="1.1" xmlns="http://www.w3.org/2000/svg" x="0" y="0" viewBox="0 0 642 642" xml:space="preserve"><style>.st1{fill:#fff}</style><path class="st1" d="M321 16c41.2 0 81.1 8.1 118.7 24 36.3 15.4 68.9 37.4 97 65.4 28 28 50 60.6 65.4 97 15.9 37.6 24 77.5 24 118.7s-8.1 81.1-24 118.7c-15.4 36.3-37.4 68.9-65.4 97-28 28-60.6 50-97 65.4-37.6 15.9-77.5 24-118.7 24s-81.1-8.1-118.7-24c-36.3-15.4-68.9-37.4-97-65.4-28-28-50-60.6-65.4-97C24.1 402.1 16 362.2 16 321s8.1-81.1 24-118.7c15.4-36.3 37.4-68.9 65.4-97 28-28 60.6-50 97-65.4C239.9 24.1 279.8 16 321 16m0-16C143.7 0 0 143.7 0 321s143.7 321 321 321 321-143.7 321-321S498.3 0 321 0z"/><path class="st1" d="M401.1 358.1H384l-6.4-6.4c21.4-23.5 34.2-55.6 34.2-89.8 0-76.9-62-138.9-138.9-138.9S134 185 134 261.9s62 138.9 138.9 138.9c34.2 0 66.3-12.8 89.8-34.2l6.4 6.4v17.1L475.9 497l32.1-32.1-106.9-106.8zm-128.2 0c-53.4 0-96.2-42.7-96.2-96.2s42.7-96.2 96.2-96.2 96.2 42.7 96.2 96.2-42.8 96.2-96.2 96.2z" id="search"/></svg>
