<svg version="1.1" xmlns="http://www.w3.org/2000/svg" x="0" y="0" viewBox="0 0 642 642" xml:space="preserve"><style>.st0{fill:#fff}</style><path class="st0" d="M321 304c52 0 94.5-42.5 94.5-94.5S373 115 321 115s-94.5 42.5-94.5 94.5S269 304 321 304zm0 47.2c-63.8 0-189 30.7-189 94.5V493h378v-47.2c0-63.8-125.2-94.6-189-94.6z" id="person"/><path class="st0" d="M321 16c41.2 0 81.1 8.1 118.7 24 36.3 15.4 68.9 37.4 97 65.4 28 28 50 60.6 65.4 97 15.9 37.6 24 77.5 24 118.7s-8.1 81.1-24 118.7c-15.4 36.3-37.4 68.9-65.4 97-28 28-60.6 50-97 65.4-37.6 15.9-77.5 24-118.7 24s-81.1-8.1-118.7-24c-36.3-15.4-68.9-37.4-97-65.4-28-28-50-60.6-65.4-97C24.1 402.1 16 362.2 16 321s8.1-81.1 24-118.7c15.4-36.3 37.4-68.9 65.4-97 28-28 60.6-50 97-65.4C239.9 24.1 279.8 16 321 16m0-16C143.7 0 0 143.7 0 321s143.7 321 321 321 321-143.7 321-321S498.3 0 321 0z"/></svg>
